<svg width="66" height="33" viewBox="0 0 66 33" fill="none" xmlns="http://www.w3.org/2000/svg">
<path d="M8.208 24.5033C7.04 24.5033 6.008 24.2793 5.112 23.8313C4.232 23.3673 3.48 22.7593 2.856 22.0073C2.248 21.2393 1.792 20.3833 1.488 19.4393C1.184 18.4793 1.032 17.5033 1.032 16.5113V9.33529C1.032 9.01529 1.056 8.71929 1.104 8.44729C1.168 8.15929 1.328 7.92729 1.584 7.75129C1.84 7.57529 2.264 7.48729 2.856 7.48729C3.464 7.48729 3.896 7.57529 4.152 7.75129C4.408 7.92729 4.56 8.15929 4.608 8.44729C4.672 8.71929 4.704 9.02329 4.704 9.35929V16.5113C4.704 17.2153 4.816 17.8953 5.04 18.5513C5.28 19.2073 5.664 19.7513 6.192 20.1833C6.72 20.6153 7.416 20.8313 8.28 20.8313C9.016 20.8313 9.648 20.6553 10.176 20.3033C10.704 19.9353 11.112 19.4313 11.4 18.7913C11.688 18.1353 11.832 17.3673 11.832 16.4873V9.19129C11.832 8.90329 11.864 8.63129 11.928 8.37529C11.992 8.11929 12.152 7.91129 12.408 7.75129C12.664 7.57529 13.088 7.48729 13.68 7.48729C14.272 7.48729 14.688 7.58329 14.928 7.77529C15.184 7.95129 15.336 8.17529 15.384 8.44729C15.448 8.71929 15.48 9.02329 15.48 9.35929V16.5593C15.48 17.5673 15.32 18.5433 15 19.4873C14.696 20.4313 14.232 21.2793 13.608 22.0313C13 22.7833 12.24 23.3833 11.328 23.8313C10.432 24.2793 9.392 24.5033 8.208 24.5033ZM19.4514 24.2873C18.8594 24.2873 18.4354 24.1993 18.1794 24.0233C17.9394 23.8473 17.7874 23.6153 17.7234 23.3273C17.6594 23.0393 17.6274 22.7433 17.6274 22.4393V9.33529C17.6274 9.03129 17.6594 8.74329 17.7234 8.47129C17.7874 8.18329 17.9474 7.95129 18.2034 7.77529C18.4594 7.59929 18.8834 7.51129 19.4754 7.51129H24.3954C25.0674 7.51129 25.7394 7.63129 26.4114 7.87129C27.0994 8.11129 27.7314 8.48729 28.3074 8.99929C28.8994 9.49529 29.3714 10.1113 29.7234 10.8473C30.0914 11.5833 30.2754 12.4473 30.2754 13.4393C30.2754 14.4153 30.0914 15.2713 29.7234 16.0073C29.3714 16.7433 28.8994 17.3593 28.3074 17.8553C27.7314 18.3353 27.0994 18.7033 26.4114 18.9593C25.7234 19.1993 25.0434 19.3193 24.3714 19.3193H21.2994V22.4633C21.2994 22.7673 21.2674 23.0633 21.2034 23.3513C21.1394 23.6233 20.9794 23.8473 20.7234 24.0233C20.4674 24.1993 20.0434 24.2873 19.4514 24.2873ZM21.2994 15.6713H24.3954C24.7474 15.6713 25.0914 15.5993 25.4274 15.4553C25.7794 15.2953 26.0674 15.0473 26.2914 14.7113C26.5314 14.3753 26.6514 13.9433 26.6514 13.4153C26.6514 12.9673 26.5554 12.5753 26.3634 12.2393C26.1714 11.9033 25.8994 11.6393 25.5474 11.4473C25.2114 11.2553 24.8194 11.1593 24.3714 11.1593H21.2994V15.6713Z" fill="white"/>
<path d="M44.8913 23.1637C44.3365 23.5971 43.6813 23.9669 42.9256 24.273C42.1699 24.5792 41.3578 24.7873 40.4894 24.8972C39.621 25.0072 38.7292 24.9832 37.8139 24.8252C36.9014 24.6447 36.0144 24.3022 35.1531 23.7975C34.2945 23.2703 33.4959 22.5339 32.7571 21.5883C32.0478 20.6805 31.5561 19.7652 31.2818 18.8424C31.0103 17.8972 30.9073 16.9727 30.9727 16.0688C31.038 15.1649 31.2341 14.3113 31.5607 13.5079C31.8774 12.6919 32.287 11.9557 32.7893 11.2992C33.2818 10.6302 33.8118 10.074 34.3791 9.63076C35.0222 9.12838 35.6423 8.76568 36.2397 8.54265C36.837 8.31963 37.351 8.17186 37.7816 8.09936C38.2024 8.01424 38.4753 7.97365 38.6002 7.97759C38.9355 7.93897 39.2729 7.92911 39.6126 7.94802C39.9522 7.96692 40.2416 8.11644 40.4808 8.39658C40.599 8.54788 40.6857 8.7238 40.7409 8.92435C40.7988 9.10245 40.835 9.31777 40.8496 9.57033C40.8744 10.0179 40.8465 10.385 40.7657 10.6714C40.6877 10.9354 40.5541 11.1413 40.365 11.289C40.2137 11.4072 40.0392 11.4827 39.8414 11.5154C39.6562 11.5383 39.4135 11.5654 39.1132 11.597C38.9757 11.6029 38.7906 11.6257 38.5577 11.6655C38.315 11.6927 38.0254 11.7769 37.6889 11.9179C37.3426 12.0464 36.9551 12.2781 36.5264 12.613C36.0851 12.9578 35.7015 13.3894 35.3757 13.9079C35.0526 14.404 34.8251 14.9574 34.6931 15.5681C34.5611 16.1788 34.5738 16.8187 34.731 17.4877C34.8784 18.1442 35.2032 18.7939 35.7056 19.4369C36.2277 20.1051 36.7894 20.5902 37.3906 20.892C38.0045 21.1839 38.6237 21.3397 39.2482 21.3594C39.8727 21.3791 40.4697 21.2985 41.039 21.1176C41.6111 20.9143 42.1115 20.6452 42.5402 20.3103C42.9184 20.0148 43.2104 19.7257 43.416 19.4432C43.6343 19.1509 43.7986 18.8804 43.9089 18.6318C44.022 18.3607 44.1134 18.1268 44.1831 17.9302C44.2529 17.7336 44.3275 17.5433 44.4071 17.3593C44.4993 17.1654 44.6211 17.0094 44.7724 16.8912C44.9489 16.7533 45.1796 16.6847 45.4644 16.6855C45.7619 16.6764 46.1234 16.7493 46.549 16.9042C46.7905 16.9794 47.0068 17.0744 47.1979 17.189C47.3792 17.2911 47.5226 17.4227 47.6282 17.5838C47.835 17.8486 47.9066 18.148 47.8427 18.4821C47.7691 18.8037 47.6729 19.1224 47.5543 19.4384C47.4929 19.5677 47.3861 19.8338 47.234 20.2369C47.0721 20.6274 46.8058 21.0791 46.435 21.5921C46.0741 22.1177 45.5595 22.6416 44.8913 23.1637Z" fill="white"/>
<path d="M56.808 24.5273C55.656 24.5273 54.568 24.3113 53.544 23.8793C52.536 23.4313 51.648 22.8233 50.88 22.0553C50.128 21.2713 49.528 20.3673 49.08 19.3433C48.648 18.3193 48.432 17.2153 48.432 16.0313C48.432 14.8313 48.64 13.7113 49.056 12.6713C49.488 11.6153 50.072 10.6873 50.808 9.88729C51.56 9.08729 52.432 8.46329 53.424 8.01529C54.416 7.56729 55.48 7.34329 56.616 7.34329C57.768 7.34329 58.848 7.56729 59.856 8.01529C60.88 8.44729 61.768 9.05529 62.52 9.83929C63.272 10.6233 63.864 11.5353 64.296 12.5753C64.744 13.6153 64.968 14.7433 64.968 15.9593C64.968 17.1273 64.752 18.2313 64.32 19.2713C63.904 20.2953 63.32 21.2073 62.568 22.0073C61.816 22.7913 60.944 23.4073 59.952 23.8553C58.976 24.3033 57.928 24.5273 56.808 24.5273ZM56.688 20.8793C57.328 20.8793 57.928 20.7513 58.488 20.4953C59.048 20.2393 59.536 19.8953 59.952 19.4633C60.384 19.0153 60.712 18.4953 60.936 17.9033C61.176 17.2953 61.296 16.6393 61.296 15.9353C61.296 15.2633 61.176 14.6313 60.936 14.0393C60.696 13.4313 60.36 12.9033 59.928 12.4553C59.512 11.9913 59.024 11.6313 58.464 11.3753C57.92 11.1193 57.328 10.9913 56.688 10.9913C56.064 10.9913 55.472 11.1193 54.912 11.3753C54.368 11.6313 53.88 11.9913 53.448 12.4553C53.032 12.9033 52.696 13.4313 52.44 14.0393C52.2 14.6313 52.08 15.2713 52.08 15.9593C52.08 16.6313 52.2 17.2713 52.44 17.8793C52.696 18.4713 53.032 18.9913 53.448 19.4393C53.88 19.8873 54.368 20.2393 54.912 20.4953C55.456 20.7513 56.048 20.8793 56.688 20.8793Z" fill="white"/>
</svg>
