<svg width="64" height="18" viewBox="0 0 64 18" fill="none" xmlns="http://www.w3.org/2000/svg">
<g clip-path="url(#clip0_641_326)">
<path d="M7.208 17.5033C6.04 17.5033 5.008 17.2793 4.112 16.8313C3.232 16.3673 2.48 15.7593 1.856 15.0073C1.248 14.2393 0.792 13.3833 0.488 12.4393C0.184 11.4793 0.032 10.5033 0.032 9.51129V2.33529C0.032 2.01529 0.0560001 1.71929 0.104 1.44729C0.168 1.15929 0.328 0.927289 0.584 0.751289C0.84 0.575288 1.264 0.487288 1.856 0.487288C2.464 0.487288 2.896 0.575288 3.152 0.751289C3.408 0.927289 3.56 1.15929 3.608 1.44729C3.672 1.71929 3.704 2.02329 3.704 2.35929V9.51129C3.704 10.2153 3.816 10.8953 4.04 11.5513C4.28 12.2073 4.664 12.7513 5.192 13.1833C5.72 13.6153 6.416 13.8313 7.28 13.8313C8.016 13.8313 8.648 13.6553 9.176 13.3033C9.704 12.9353 10.112 12.4313 10.4 11.7913C10.688 11.1353 10.832 10.3673 10.832 9.48729V2.19129C10.832 1.90329 10.864 1.63129 10.928 1.37529C10.992 1.11929 11.152 0.911289 11.408 0.751289C11.664 0.575288 12.088 0.487288 12.68 0.487288C13.272 0.487288 13.688 0.583288 13.928 0.775289C14.184 0.951288 14.336 1.17529 14.384 1.44729C14.448 1.71929 14.48 2.02329 14.48 2.35929V9.55929C14.48 10.5673 14.32 11.5433 14 12.4873C13.696 13.4313 13.232 14.2793 12.608 15.0313C12 15.7833 11.24 16.3833 10.328 16.8313C9.432 17.2793 8.392 17.5033 7.208 17.5033ZM18.4514 17.2873C17.8594 17.2873 17.4354 17.1993 17.1794 17.0233C16.9394 16.8473 16.7874 16.6153 16.7234 16.3273C16.6594 16.0393 16.6274 15.7433 16.6274 15.4393V2.33529C16.6274 2.03129 16.6594 1.74329 16.7234 1.47129C16.7874 1.18329 16.9474 0.951288 17.2034 0.775289C17.4594 0.599288 17.8834 0.511288 18.4754 0.511288H23.3954C24.0674 0.511288 24.7394 0.631288 25.4114 0.871289C26.0994 1.11129 26.7314 1.48729 27.3074 1.99929C27.8994 2.49529 28.3714 3.11129 28.7234 3.84729C29.0914 4.58329 29.2754 5.44729 29.2754 6.43929C29.2754 7.41529 29.0914 8.27129 28.7234 9.00729C28.3714 9.74329 27.8994 10.3593 27.3074 10.8553C26.7314 11.3353 26.0994 11.7033 25.4114 11.9593C24.7234 12.1993 24.0434 12.3193 23.3714 12.3193H20.2994V15.4633C20.2994 15.7673 20.2674 16.0633 20.2034 16.3513C20.1394 16.6233 19.9794 16.8473 19.7234 17.0233C19.4674 17.1993 19.0434 17.2873 18.4514 17.2873ZM20.2994 8.67129H23.3954C23.7474 8.67129 24.0914 8.59929 24.4274 8.45529C24.7794 8.29529 25.0674 8.04729 25.2914 7.71129C25.5314 7.37529 25.6514 6.94329 25.6514 6.41529C25.6514 5.96729 25.5554 5.57529 25.3634 5.23929C25.1714 4.90329 24.8994 4.63929 24.5474 4.44729C24.2114 4.25529 23.8194 4.15929 23.3714 4.15929H20.2994V8.67129Z" fill="#ffffff"/>
<path d="M43.8913 16.1637C43.3365 16.5971 42.6813 16.9669 41.9256 17.273C41.1699 17.5792 40.3578 17.7873 39.4894 17.8972C38.621 18.0072 37.7292 17.9832 36.8139 17.8252C35.9014 17.6447 35.0144 17.3022 34.1531 16.7975C33.2945 16.2703 32.4959 15.5339 31.7571 14.5883C31.0478 13.6805 30.5561 12.7652 30.2818 11.8424C30.0103 10.8972 29.9073 9.97266 29.9727 9.0688C30.038 8.16493 30.2341 7.3113 30.5607 6.5079C30.8774 5.6919 31.287 4.95568 31.7893 4.29924C32.2818 3.6302 32.8118 3.07404 33.3791 2.63076C34.0222 2.12838 34.6423 1.76568 35.2397 1.54265C35.837 1.31963 36.351 1.17186 36.7816 1.09936C37.2024 1.01424 37.4753 0.973652 37.6002 0.977589C37.9355 0.938968 38.2729 0.929111 38.6126 0.948016C38.9522 0.966921 39.2416 1.11644 39.4808 1.39658C39.599 1.54788 39.6857 1.7238 39.7409 1.92435C39.7988 2.10245 39.835 2.31777 39.8496 2.57033C39.8744 3.01793 39.8465 3.38495 39.7657 3.6714C39.6877 3.93539 39.5541 4.14127 39.365 4.28903C39.2137 4.40723 39.0392 4.48269 38.8414 4.5154C38.6562 4.53825 38.4135 4.56545 38.1132 4.59697C37.9757 4.60289 37.7906 4.62574 37.5577 4.66554C37.315 4.69274 37.0254 4.77686 36.6889 4.91793C36.3426 5.04638 35.9551 5.27807 35.5264 5.61299C35.0851 5.95776 34.7015 6.38941 34.3757 6.90794C34.0526 7.40401 33.8251 7.9574 33.6931 8.56812C33.5611 9.17884 33.5738 9.81872 33.731 10.4877C33.8784 11.1442 34.2032 11.7939 34.7056 12.4369C35.2277 13.1051 35.7894 13.5902 36.3906 13.892C37.0045 14.1839 37.6237 14.3397 38.2482 14.3594C38.8727 14.3791 39.4697 14.2985 40.039 14.1176C40.6111 13.9143 41.1115 13.6452 41.5402 13.3103C41.9184 13.0148 42.2104 12.7257 42.416 12.4432C42.6343 12.1509 42.7986 11.8804 42.9089 11.6318C43.022 11.3607 43.1134 11.1268 43.1831 10.9302C43.2529 10.7336 43.3275 10.5433 43.4071 10.3593C43.4993 10.1654 43.6211 10.0094 43.7724 9.89119C43.9489 9.75328 44.1796 9.68472 44.4644 9.6855C44.7619 9.67643 45.1234 9.74932 45.549 9.90415C45.7905 9.9794 46.0068 10.0744 46.1979 10.189C46.3792 10.2911 46.5226 10.4227 46.6282 10.5838C46.835 10.8486 46.9066 11.148 46.8427 11.4821C46.7691 11.8037 46.6729 12.1224 46.5543 12.4384C46.4929 12.5677 46.3861 12.8338 46.234 13.2369C46.0721 13.6274 45.8058 14.0791 45.435 14.5921C45.0741 15.1177 44.5595 15.6416 43.8913 16.1637Z" fill="#ffffff"/>
<path d="M55.808 17.5273C54.656 17.5273 53.568 17.3113 52.544 16.8793C51.536 16.4313 50.648 15.8233 49.88 15.0553C49.128 14.2713 48.528 13.3673 48.08 12.3433C47.648 11.3193 47.432 10.2153 47.432 9.03129C47.432 7.83129 47.64 6.71129 48.056 5.67129C48.488 4.61529 49.072 3.68729 49.808 2.88729C50.56 2.08729 51.432 1.46329 52.424 1.01529C53.416 0.567288 54.48 0.343288 55.616 0.343288C56.768 0.343288 57.848 0.567288 58.856 1.01529C59.88 1.44729 60.768 2.05529 61.52 2.83929C62.272 3.62329 62.864 4.53529 63.296 5.57529C63.744 6.61529 63.968 7.74329 63.968 8.95929C63.968 10.1273 63.752 11.2313 63.32 12.2713C62.904 13.2953 62.32 14.2073 61.568 15.0073C60.816 15.7913 59.944 16.4073 58.952 16.8553C57.976 17.3033 56.928 17.5273 55.808 17.5273ZM55.688 13.8793C56.328 13.8793 56.928 13.7513 57.488 13.4953C58.048 13.2393 58.536 12.8953 58.952 12.4633C59.384 12.0153 59.712 11.4953 59.936 10.9033C60.176 10.2953 60.296 9.63929 60.296 8.93529C60.296 8.26329 60.176 7.63129 59.936 7.03929C59.696 6.43129 59.36 5.90329 58.928 5.45529C58.512 4.99129 58.024 4.63129 57.464 4.37529C56.92 4.11929 56.328 3.99129 55.688 3.99129C55.064 3.99129 54.472 4.11929 53.912 4.37529C53.368 4.63129 52.88 4.99129 52.448 5.45529C52.032 5.90329 51.696 6.43129 51.44 7.03929C51.2 7.63129 51.08 8.27129 51.08 8.95929C51.08 9.63129 51.2 10.2713 51.44 10.8793C51.696 11.4713 52.032 11.9913 52.448 12.4393C52.88 12.8873 53.368 13.2393 53.912 13.4953C54.456 13.7513 55.048 13.8793 55.688 13.8793Z" fill="#ffffff"/>
</g>
<defs>
<clipPath id="clip0_641_326">
<rect width="64" height="18" fill="white"/>
</clipPath>
</defs>
</svg>
